<?xml version="1.0" encoding="utf-8"?>
<!-- Generator: Adobe Illustrator 16.0.0, SVG Export Plug-In . SVG Version: 6.00 Build 0)  -->
<!DOCTYPE svg PUBLIC "-//W3C//DTD SVG 1.1//EN" "http://www.w3.org/Graphics/SVG/1.1/DTD/svg11.dtd">
<svg version="1.1" id="Layer_1" xmlns="http://www.w3.org/2000/svg" xmlns:xlink="http://www.w3.org/1999/xlink" x="0px" y="0px"
	 width="50px" height="64.044px" viewBox="24.59 4.706 50 64.044" style="enable-background:new 24.59 4.706 50 64.044;"
	 xml:space="preserve">
<style type="text/css">
<![CDATA[
	.st0{fill:#FFFFFF;}
]]>
</style>
<g>
	<path class="st0" d="M49.59,4.706c-13.808,0-25,11.193-25,25S34.875,62,49.59,68.75c14.91-6.75,25-25.237,25-39.044 S63.396,4.706,49.59,4.706z M49.59,52.706c-12.683,0-23-10.318-23-23s10.317-23,23-23c12.684,0,23,10.318,23,23 S62.271,52.706,49.59,52.706z"/>
	<path d="M49.59,6.706c-12.683,0-23,10.318-23,23s10.317,23,23,23c12.684,0,23-10.318,23-23S62.271,6.706,49.59,6.706z"/>
</g>
</svg>
